<svg xmlns="http://www.w3.org/2000/svg" width="1018" height="815">
    <g transform="matrix(1 0 0 -1 1 814)">
<rect x="0" y="0" width="1016" height="813" stroke="black" stoke-width="1px" fill="#ccc"></rect>
<rect x="0" y="0" width="927.3505703015934" height="223.37839676360858" stroke="black" stoke-width="1px" fill="#fff"></rect>
<rect x="0" y="223.37839676360858" width="927.3505703015934" height="111.61580029591246" stroke="black" stoke-width="1px" fill="#fff"></rect>
<rect x="0" y="334.99419705952107" width="927.3505703015934" height="91.61580029591246" stroke="black" stoke-width="1px" fill="#fff"></rect>
<rect x="0" y="426.6099973554335" width="214.98499733790624" height="219.58374917543213" stroke="black" stoke-width="1px" fill="#fff"></rect>
<rect x="214.98499733790624" y="426.6099973554335" width="214.98499733790624" height="219.5837491754321" stroke="black" stoke-width="1px" fill="#fff"></rect>
<rect x="0" y="646.1937465308656" width="219.58374917543213" height="111.61580029591246" stroke="black" stoke-width="1px" fill="#fff"></rect>
<rect x="219.58374917543213" y="646.1937465308656" width="219.5837491754321" height="111.61580029591246" stroke="black" stoke-width="1px" fill="#fff"></rect>
<rect x="429.9699946758125" y="426.6099973554335" width="219.58374917543213" height="91.61580029591246" stroke="black" stoke-width="1px" fill="#fff"></rect>
<rect x="429.9699946758125" y="518.2257976513459" width="219.5837491754321" height="91.61580029591246" stroke="black" stoke-width="1px" fill="#fff"></rect>
<rect x="927.3505703015934" y="0" width="60" height="258.4700930093171" stroke="black" stoke-width="1px" fill="#ffd"></rect>
<rect x="927.3505703015934" y="258.4700930093171" width="60.0" height="258.4700930093171" stroke="black" stoke-width="1px" fill="#ffd"></rect>
<rect x="439.1674983508642" y="609.8415979472584" width="82.17993434406554" height="163.00952538422587" stroke="black" stoke-width="1px" fill="#ccc"></rect>
<rect x="521.3474326949297" y="609.8415979472584" width="82.17993434406554" height="163.00952538422587" stroke="black" stoke-width="1px" fill="#ccc"></rect>
<rect x="987.3505703015934" y="0" width="28.647975869377767" height="402.5821874970239" stroke="black" stoke-width="1px" fill="#fff"></rect>
<rect x="987.3505703015934" y="402.5821874970239" width="28.647975869377767" height="402.5821874970239" stroke="black" stoke-width="1px" fill="#fff"></rect>
<rect x="0" y="772.8511233314842" width="927.3505703015934" height="10.0" stroke="black" stoke-width="1px" fill="#fff"></rect>
<rect x="0" y="782.8511233314842" width="927.3505703015934" height="10.0" stroke="black" stoke-width="1px" fill="#fff"></rect>
<rect x="603.5273670389952" y="609.8415979472584" width="82.17993434406554" height="92.93184897403482" stroke="black" stoke-width="1px" fill="#ccc"></rect>
<rect x="649.5537438512446" y="516.9401860186342" width="92.93184897403482" height="82.17993434406554" stroke="black" stoke-width="1px" fill="#ccc"></rect>
<rect x="649.5537438512446" y="426.6099973554335" width="92.93184897403482" height="82.17993434406554" stroke="black" stoke-width="1px" fill="#ccc"></rect>
<rect x="685.7073013830607" y="599.1201203626997" width="81.17993434406554" height="91.61580029591246" stroke="black" stoke-width="1px" fill="#ccc"></rect>
<rect x="685.7073013830607" y="690.7359206586121" width="91.61580029591246" height="81.17993434406554" stroke="black" stoke-width="1px" fill="#ccc"></rect>
<rect x="927.3505703015934" y="516.9401860186342" width="20" height="296.05523075889596" stroke="black" stoke-width="1px" fill="#ffd"></rect>
<rect x="947.3505703015934" y="516.9401860186342" width="20.0" height="296.05523075889596" stroke="black" stoke-width="1px" fill="#dff"></rect>
<rect x="967.3505703015934" y="516.9401860186342" width="20.0" height="296.05523075889596" stroke="black" stoke-width="1px" fill="#dff"></rect>
<rect x="0" y="792.8511233314842" width="296.05523075889596" height="20.0" stroke="black" stoke-width="1px" fill="#dff"></rect>
<rect x="296.05523075889596" y="792.8511233314842" width="296.05523075889596" height="20.0" stroke="black" stoke-width="1px" fill="#dff"></rect>
<rect x="592.1104615177919" y="792.8511233314842" width="296.05523075889596" height="20.0" stroke="black" stoke-width="1px" fill="#dff"></rect>
<rect x="777.3231016789731" y="426.6099973554335" width="20.0" height="296.05523075889596" stroke="black" stoke-width="1px" fill="#dff"></rect>
<rect x="797.3231016789731" y="426.6099973554335" width="20.0" height="296.05523075889596" stroke="black" stoke-width="1px" fill="#dff"></rect>
<rect x="817.3231016789731" y="426.6099973554335" width="20.0" height="296.05523075889596" stroke="black" stoke-width="1px" fill="#ffd"></rect>
<rect x="742.4855928252794" y="426.6099973554335" width="20" height="163.52044265134492" stroke="black" stoke-width="1px" fill="#ffd"></rect>
<rect x="837.3231016789731" y="426.6099973554335" width="20" height="163.52044265134492" stroke="black" stoke-width="1px" fill="#ffd"></rect>
<rect x="837.3231016789731" y="590.1304400067784" width="20.0" height="163.52044265134492" stroke="black" stoke-width="1px" fill="#ffd"></rect>
<rect x="857.3231016789731" y="426.6099973554335" width="20.0" height="163.52044265134492" stroke="black" stoke-width="1px" fill="#ffd"></rect>
<rect x="857.3231016789731" y="590.1304400067784" width="20" height="163.52044265134487" stroke="black" stoke-width="1px" fill="#ffd"></rect>
<rect x="877.3231016789731" y="426.6099973554335" width="20" height="163.52044265134487" stroke="black" stoke-width="1px" fill="#ffd"></rect>
<rect x="897.3231016789731" y="426.6099973554335" width="20.0" height="163.52044265134487" stroke="black" stoke-width="1px" fill="#ffd"></rect>
<rect x="877.3231016789731" y="590.1304400067784" width="20.0" height="163.52044265134487" stroke="black" stoke-width="1px" fill="#ffd"></rect>
<rect x="917.3231016789731" y="426.6099973554335" width="10.0" height="219.58374917543213" stroke="black" stoke-width="1px" fill="#fff"></rect>
<rect x="766.8872357271262" y="426.6099973554335" width="10.0" height="219.58374917543213" stroke="black" stoke-width="1px" fill="#fff"></rect>
<rect x="0" y="757.809546826778" width="219.5837491754321" height="10.0" stroke="black" stoke-width="1px" fill="#fff"></rect>
<rect x="219.5837491754321" y="757.809546826778" width="219.5837491754321" height="10.0" stroke="black" stoke-width="1px" fill="#fff"></rect>
<polyline points="927.3505703015934,87.31759614562647 0.0,87.31759614562647" style="pointer-events:none;" stroke="gray" stroke-width="0.5" stroke-dasharray="2" fill="none"></polyline>
<polyline points="927.3505703015934,136.06080061798212 0.0,136.06080061798212" style="pointer-events:none;" stroke="gray" stroke-width="0.5" stroke-dasharray="2" fill="none"></polyline>
<polyline points="84.26067190228157,426.6099973554335 84.26067190228157,646.1937465308656" style="pointer-events:none;" stroke="gray" stroke-width="0.5" stroke-dasharray="2" fill="none"></polyline>
<polyline points="130.72432543562468,426.6099973554335 130.72432543562468,646.1937465308656" style="pointer-events:none;" stroke="gray" stroke-width="0.5" stroke-dasharray="2" fill="none"></polyline>
<polyline points="299.2456692401878,426.6099973554335 299.2456692401878,646.1937465308656" style="pointer-events:none;" stroke="gray" stroke-width="0.5" stroke-dasharray="2" fill="none"></polyline>
<polyline points="345.7093227735309,426.6099973554335 345.7093227735309,646.1937465308656" style="pointer-events:none;" stroke="gray" stroke-width="0.5" stroke-dasharray="2" fill="none"></polyline>
<polyline points="987.3505703015934,16.239420674362844 927.3505703015934,16.239420674362844" style="pointer-events:none;" stroke="gray" stroke-width="0.5" stroke-dasharray="2" fill="none"></polyline>
<polyline points="987.3505703015934,84.92714635670231 927.3505703015934,84.92714635670231" style="pointer-events:none;" stroke="gray" stroke-width="0.5" stroke-dasharray="2" fill="none"></polyline>
<polyline points="987.3505703015934,173.54294665261477 927.3505703015934,173.54294665261477" style="pointer-events:none;" stroke="gray" stroke-width="0.5" stroke-dasharray="2" fill="none"></polyline>
<polyline points="987.3505703015934,242.23067233495425 927.3505703015934,242.23067233495425" style="pointer-events:none;" stroke="gray" stroke-width="0.5" stroke-dasharray="2" fill="none"></polyline>
<polyline points="987.3505703015934,274.70951368368 927.3505703015934,274.70951368368" style="pointer-events:none;" stroke="gray" stroke-width="0.5" stroke-dasharray="2" fill="none"></polyline>
<polyline points="987.3505703015934,343.39723936601945 927.3505703015934,343.39723936601945" style="pointer-events:none;" stroke="gray" stroke-width="0.5" stroke-dasharray="2" fill="none"></polyline>
<polyline points="987.3505703015934,432.0130396619319 927.3505703015934,432.0130396619319" style="pointer-events:none;" stroke="gray" stroke-width="0.5" stroke-dasharray="2" fill="none"></polyline>
<polyline points="987.3505703015934,500.70076534427136 927.3505703015934,500.70076534427136" style="pointer-events:none;" stroke="gray" stroke-width="0.5" stroke-dasharray="2" fill="none"></polyline>
<polyline points="439.1674983508642,702.7734469212932 439.1674983508642,609.8415979472584 521.3474326949297,632.6957705111022 521.3474326949297,679.9192743574495 439.1674983508642,702.7734469212932" style="pointer-events:none;" stroke="gray" stroke-width="0.5" stroke-dasharray="2" fill="#dff"></polyline>
<polyline points="521.3474326949297,679.9192743574495 521.3474326949297,772.8511233314842 439.1674983508642,749.9969507676406 439.1674983508642,702.7734469212932 521.3474326949297,679.9192743574495" style="pointer-events:none;" stroke="gray" stroke-width="0.5" stroke-dasharray="2" fill="#dff"></polyline>
<polyline points="521.3474326949297,702.7734469212932 521.3474326949297,609.8415979472584 603.5273670389952,632.6957705111022 603.5273670389952,679.9192743574495 521.3474326949297,702.7734469212932" style="pointer-events:none;" stroke="gray" stroke-width="0.5" stroke-dasharray="2" fill="#dff"></polyline>
<polyline points="603.5273670389952,679.9192743574495 603.5273670389952,772.8511233314842 521.3474326949297,749.9969507676406 521.3474326949297,702.7734469212932 603.5273670389952,679.9192743574495" style="pointer-events:none;" stroke="gray" stroke-width="0.5" stroke-dasharray="2" fill="#dff"></polyline>
<polyline points="995.7434754153637,0.0 995.7434754153637,402.5821874970239" style="pointer-events:none;" stroke="gray" stroke-width="0.5" stroke-dasharray="2" fill="none"></polyline>
<polyline points="1007.6056410572008,402.5821874970239 1007.6056410572008,805.1643749940478" style="pointer-events:none;" stroke="gray" stroke-width="0.5" stroke-dasharray="2" fill="none"></polyline>
<polyline points="684.7073013830607,701.615422582232 607.691436592904,701.615422582232 684.7073013830607,680.1973735400085 684.7073013830607,701.615422582232" style="pointer-events:none;" stroke="gray" stroke-width="0.5" stroke-dasharray="2" fill="#ffd"></polyline>
<polyline points="684.7073013830607,610.9996222863195 684.7073013830607,632.4176713285431 607.691436592904,610.9996222863195 684.7073013830607,610.9996222863195" style="pointer-events:none;" stroke="gray" stroke-width="0.5" stroke-dasharray="2" fill="#ffd"></polyline>
<polyline points="603.5273670389952,702.7734469212932 603.5273670389952,609.8415979472584 685.7073013830607,632.6957705111022 685.7073013830607,679.9192743574495 603.5273670389952,702.7734469212932" style="pointer-events:none;" stroke="gray" stroke-width="0.5" stroke-dasharray="2" fill="#dff"></polyline>
<polyline points="742.4855928252794,599.1201203626997 649.5537438512446,599.1201203626997 672.4079164150884,516.9401860186342 719.6314202614357,516.9401860186342 742.4855928252794,599.1201203626997" style="pointer-events:none;" stroke="gray" stroke-width="0.5" stroke-dasharray="2" fill="#dff"></polyline>
<polyline points="742.4855928252794,508.78993169949905 649.5537438512446,508.78993169949905 672.4079164150884,426.6099973554335 719.6314202614357,426.6099973554335 742.4855928252794,508.78993169949905" style="pointer-events:none;" stroke="gray" stroke-width="0.5" stroke-dasharray="2" fill="#dff"></polyline>
<polyline points="741.3275684862182,427.6099973554335 741.3275684862182,504.62586214559036 719.9095194439947,427.6099973554335 741.3275684862182,427.6099973554335" style="pointer-events:none;" stroke="gray" stroke-width="0.5" stroke-dasharray="2" fill="#ffd"></polyline>
<polyline points="650.7117681903057,427.6099973554335 672.1298172325293,427.6099973554335 650.7117681903057,504.6258621455903 650.7117681903057,427.6099973554335" style="pointer-events:none;" stroke="gray" stroke-width="0.5" stroke-dasharray="2" fill="#ffd"></polyline>
<polyline points="766.3872357271262,690.2359206586121 689.3713709369695,690.2359206586121 766.3872357271262,668.8178716163886 766.3872357271262,690.2359206586121" style="pointer-events:none;" stroke="gray" stroke-width="0.5" stroke-dasharray="2" fill="#ffd"></polyline>
<polyline points="766.3872357271262,599.6201203626997 766.3872357271262,621.0381694049232 689.3713709369695,599.6201203626997 766.3872357271262,599.6201203626997" style="pointer-events:none;" stroke="gray" stroke-width="0.5" stroke-dasharray="2" fill="#ffd"></polyline>
<polyline points="685.7073013830607,690.7359206586121 685.7073013830607,599.1201203626997 766.8872357271262,621.6961937439844 766.8872357271262,668.1598472773275 685.7073013830607,690.7359206586121" style="pointer-events:none;" stroke="gray" stroke-width="0.5" stroke-dasharray="2" fill="#ffd"></polyline>
<polyline points="777.3231016789731,771.9158550026777 685.7073013830607,771.9158550026777 708.2833747643454,690.7359206586121 754.7470282976884,690.7359206586121 777.3231016789731,771.9158550026777" style="pointer-events:none;" stroke="gray" stroke-width="0.5" stroke-dasharray="2" fill="#ffd"></polyline>
<polyline points="776.8231016789731,691.2359206586121 776.8231016789731,768.2517854487689 755.4050526367496,691.2359206586121 776.8231016789731,691.2359206586121" style="pointer-events:none;" stroke="gray" stroke-width="0.5" stroke-dasharray="2" fill="#ffd"></polyline>
<polyline points="686.2073013830607,691.2359206586121 707.6253504252842,691.2359206586121 686.2073013830607,768.2517854487689 686.2073013830607,691.2359206586121" style="pointer-events:none;" stroke="gray" stroke-width="0.5" stroke-dasharray="2" fill="#ffd"></polyline>
<polyline points="947.3505703015934,605.213222672116 927.3505703015934,605.213222672116" style="pointer-events:none;" stroke="gray" stroke-width="0.5" stroke-dasharray="2" fill="none"></polyline>
<polyline points="947.3505703015934,686.8375028556668 927.3505703015934,686.8375028556668" style="pointer-events:none;" stroke="gray" stroke-width="0.5" stroke-dasharray="2" fill="none"></polyline>
<polyline points="947.3505703015934,731.3711365939794 927.3505703015934,731.3711365939794" style="pointer-events:none;" stroke="gray" stroke-width="0.5" stroke-dasharray="2" fill="none"></polyline>
<polyline points="937.3505703015934,516.9401860186342 937.3505703015934,812.9954167775302" style="pointer-events:none;" stroke="gray" stroke-width="0.5" stroke-dasharray="2" fill="none"></polyline>
<polyline points="967.3505703015934,605.213222672116 947.3505703015934,605.213222672116" style="pointer-events:none;" stroke="gray" stroke-width="0.5" stroke-dasharray="2" fill="none"></polyline>
<polyline points="967.3505703015934,686.8375028556668 947.3505703015934,686.8375028556668" style="pointer-events:none;" stroke="gray" stroke-width="0.5" stroke-dasharray="2" fill="none"></polyline>
<polyline points="967.3505703015934,731.3711365939794 947.3505703015934,731.3711365939794" style="pointer-events:none;" stroke="gray" stroke-width="0.5" stroke-dasharray="2" fill="none"></polyline>
<polyline points="957.3505703015934,516.9401860186342 957.3505703015934,812.9954167775302" style="pointer-events:none;" stroke="gray" stroke-width="0.5" stroke-dasharray="2" fill="none"></polyline>
<polyline points="987.3505703015934,605.213222672116 967.3505703015934,605.213222672116" style="pointer-events:none;" stroke="gray" stroke-width="0.5" stroke-dasharray="2" fill="none"></polyline>
<polyline points="987.3505703015934,686.8375028556668 967.3505703015934,686.8375028556668" style="pointer-events:none;" stroke="gray" stroke-width="0.5" stroke-dasharray="2" fill="none"></polyline>
<polyline points="987.3505703015934,731.3711365939794 967.3505703015934,731.3711365939794" style="pointer-events:none;" stroke="gray" stroke-width="0.5" stroke-dasharray="2" fill="none"></polyline>
<polyline points="977.3505703015934,516.9401860186342 977.3505703015934,812.9954167775302" style="pointer-events:none;" stroke="gray" stroke-width="0.5" stroke-dasharray="2" fill="none"></polyline>
<polyline points="88.27303665348171,792.8511233314842 88.27303665348171,812.8511233314842" style="pointer-events:none;" stroke="gray" stroke-width="0.5" stroke-dasharray="2" fill="none"></polyline>
<polyline points="169.8973168370326,792.8511233314842 169.8973168370326,812.8511233314842" style="pointer-events:none;" stroke="gray" stroke-width="0.5" stroke-dasharray="2" fill="none"></polyline>
<polyline points="214.4309505753451,792.8511233314842 214.4309505753451,812.8511233314842" style="pointer-events:none;" stroke="gray" stroke-width="0.5" stroke-dasharray="2" fill="none"></polyline>
<polyline points="0.0,802.8511233314842 296.05523075889596,802.8511233314842" style="pointer-events:none;" stroke="gray" stroke-width="0.5" stroke-dasharray="2" fill="none"></polyline>
<polyline points="384.32826741237767,792.8511233314842 384.32826741237767,812.8511233314842" style="pointer-events:none;" stroke="gray" stroke-width="0.5" stroke-dasharray="2" fill="none"></polyline>
<polyline points="465.95254759592854,792.8511233314842 465.95254759592854,812.8511233314842" style="pointer-events:none;" stroke="gray" stroke-width="0.5" stroke-dasharray="2" fill="none"></polyline>
<polyline points="510.48618133424105,792.8511233314842 510.48618133424105,812.8511233314842" style="pointer-events:none;" stroke="gray" stroke-width="0.5" stroke-dasharray="2" fill="none"></polyline>
<polyline points="296.05523075889596,802.8511233314842 592.1104615177919,802.8511233314842" style="pointer-events:none;" stroke="gray" stroke-width="0.5" stroke-dasharray="2" fill="none"></polyline>
<polyline points="680.3834981712737,792.8511233314842 680.3834981712737,812.8511233314842" style="pointer-events:none;" stroke="gray" stroke-width="0.5" stroke-dasharray="2" fill="none"></polyline>
<polyline points="762.0077783548245,792.8511233314842 762.0077783548245,812.8511233314842" style="pointer-events:none;" stroke="gray" stroke-width="0.5" stroke-dasharray="2" fill="none"></polyline>
<polyline points="806.5414120931371,792.8511233314842 806.5414120931371,812.8511233314842" style="pointer-events:none;" stroke="gray" stroke-width="0.5" stroke-dasharray="2" fill="none"></polyline>
<polyline points="592.1104615177919,802.8511233314842 888.1656922766879,802.8511233314842" style="pointer-events:none;" stroke="gray" stroke-width="0.5" stroke-dasharray="2" fill="none"></polyline>
<polyline points="797.3231016789731,514.8830340089153 777.3231016789731,514.8830340089153" style="pointer-events:none;" stroke="gray" stroke-width="0.5" stroke-dasharray="2" fill="none"></polyline>
<polyline points="797.3231016789731,596.5073141924661 777.3231016789731,596.5073141924661" style="pointer-events:none;" stroke="gray" stroke-width="0.5" stroke-dasharray="2" fill="none"></polyline>
<polyline points="797.3231016789731,641.0409479307787 777.3231016789731,641.0409479307787" style="pointer-events:none;" stroke="gray" stroke-width="0.5" stroke-dasharray="2" fill="none"></polyline>
<polyline points="787.3231016789731,426.6099973554335 787.3231016789731,722.6652281143295" style="pointer-events:none;" stroke="gray" stroke-width="0.5" stroke-dasharray="2" fill="none"></polyline>
<polyline points="817.3231016789731,514.8830340089153 797.3231016789731,514.8830340089153" style="pointer-events:none;" stroke="gray" stroke-width="0.5" stroke-dasharray="2" fill="none"></polyline>
<polyline points="817.3231016789731,596.5073141924661 797.3231016789731,596.5073141924661" style="pointer-events:none;" stroke="gray" stroke-width="0.5" stroke-dasharray="2" fill="none"></polyline>
<polyline points="817.3231016789731,641.0409479307787 797.3231016789731,641.0409479307787" style="pointer-events:none;" stroke="gray" stroke-width="0.5" stroke-dasharray="2" fill="none"></polyline>
<polyline points="807.3231016789731,426.6099973554335 807.3231016789731,722.6652281143295" style="pointer-events:none;" stroke="gray" stroke-width="0.5" stroke-dasharray="2" fill="none"></polyline>
<polyline points="837.3231016789731,514.8830340089153 817.3231016789731,514.8830340089153" style="pointer-events:none;" stroke="gray" stroke-width="0.5" stroke-dasharray="2" fill="none"></polyline>
<polyline points="837.3231016789731,596.5073141924661 817.3231016789731,596.5073141924661" style="pointer-events:none;" stroke="gray" stroke-width="0.5" stroke-dasharray="2" fill="none"></polyline>
<polyline points="837.3231016789731,641.0409479307787 817.3231016789731,641.0409479307787" style="pointer-events:none;" stroke="gray" stroke-width="0.5" stroke-dasharray="2" fill="none"></polyline>
<polyline points="827.3231016789731,426.6099973554335 827.3231016789731,722.6652281143295" style="pointer-events:none;" stroke="gray" stroke-width="0.5" stroke-dasharray="2" fill="none"></polyline>
<polyline points="762.4855928252794,497.213195032571 742.4855928252794,497.213195032571" style="pointer-events:none;" stroke="gray" stroke-width="0.5" stroke-dasharray="2" fill="none"></polyline>
<polyline points="762.4855928252794,570.4957484467091 742.4855928252794,570.4957484467091" style="pointer-events:none;" stroke="gray" stroke-width="0.5" stroke-dasharray="2" fill="none"></polyline>
<polyline points="752.4855928252794,426.6099973554335 752.4855928252794,590.1304400067784" style="pointer-events:none;" stroke="gray" stroke-width="0.5" stroke-dasharray="2" fill="none"></polyline>
<polyline points="857.3231016789731,497.213195032571 837.3231016789731,497.213195032571" style="pointer-events:none;" stroke="gray" stroke-width="0.5" stroke-dasharray="2" fill="none"></polyline>
<polyline points="857.3231016789731,570.4957484467091 837.3231016789731,570.4957484467091" style="pointer-events:none;" stroke="gray" stroke-width="0.5" stroke-dasharray="2" fill="none"></polyline>
<polyline points="847.3231016789731,426.6099973554335 847.3231016789731,590.1304400067784" style="pointer-events:none;" stroke="gray" stroke-width="0.5" stroke-dasharray="2" fill="none"></polyline>
<polyline points="857.3231016789731,660.7336376839158 837.3231016789731,660.7336376839158" style="pointer-events:none;" stroke="gray" stroke-width="0.5" stroke-dasharray="2" fill="none"></polyline>
<polyline points="857.3231016789731,734.0161910980539 837.3231016789731,734.0161910980539" style="pointer-events:none;" stroke="gray" stroke-width="0.5" stroke-dasharray="2" fill="none"></polyline>
<polyline points="847.3231016789731,590.1304400067784 847.3231016789731,753.6508826581232" style="pointer-events:none;" stroke="gray" stroke-width="0.5" stroke-dasharray="2" fill="none"></polyline>
<polyline points="877.3231016789731,497.213195032571 857.3231016789731,497.213195032571" style="pointer-events:none;" stroke="gray" stroke-width="0.5" stroke-dasharray="2" fill="none"></polyline>
<polyline points="877.3231016789731,570.4957484467091 857.3231016789731,570.4957484467091" style="pointer-events:none;" stroke="gray" stroke-width="0.5" stroke-dasharray="2" fill="none"></polyline>
<polyline points="867.3231016789731,426.6099973554335 867.3231016789731,590.1304400067784" style="pointer-events:none;" stroke="gray" stroke-width="0.5" stroke-dasharray="2" fill="none"></polyline>
<polyline points="877.3231016789731,609.7651315668477 857.3231016789731,609.7651315668477" style="pointer-events:none;" stroke="gray" stroke-width="0.5" stroke-dasharray="2" fill="none"></polyline>
<polyline points="877.3231016789731,683.0476849809858 857.3231016789731,683.0476849809858" style="pointer-events:none;" stroke="gray" stroke-width="0.5" stroke-dasharray="2" fill="none"></polyline>
<polyline points="867.3231016789731,590.1304400067784 867.3231016789731,753.6508826581232" style="pointer-events:none;" stroke="gray" stroke-width="0.5" stroke-dasharray="2" fill="none"></polyline>
<polyline points="897.3231016789731,446.2446889155028 877.3231016789731,446.2446889155028" style="pointer-events:none;" stroke="gray" stroke-width="0.5" stroke-dasharray="2" fill="none"></polyline>
<polyline points="897.3231016789731,519.5272423296409 877.3231016789731,519.5272423296409" style="pointer-events:none;" stroke="gray" stroke-width="0.5" stroke-dasharray="2" fill="none"></polyline>
<polyline points="887.3231016789731,426.6099973554335 887.3231016789731,590.1304400067784" style="pointer-events:none;" stroke="gray" stroke-width="0.5" stroke-dasharray="2" fill="none"></polyline>
<polyline points="917.3231016789731,446.2446889155028 897.3231016789731,446.2446889155028" style="pointer-events:none;" stroke="gray" stroke-width="0.5" stroke-dasharray="2" fill="none"></polyline>
<polyline points="917.3231016789731,519.5272423296409 897.3231016789731,519.5272423296409" style="pointer-events:none;" stroke="gray" stroke-width="0.5" stroke-dasharray="2" fill="none"></polyline>
<polyline points="907.3231016789731,426.6099973554335 907.3231016789731,590.1304400067784" style="pointer-events:none;" stroke="gray" stroke-width="0.5" stroke-dasharray="2" fill="none"></polyline>
<polyline points="897.3231016789731,609.7651315668477 877.3231016789731,609.7651315668477" style="pointer-events:none;" stroke="gray" stroke-width="0.5" stroke-dasharray="2" fill="none"></polyline>
<polyline points="897.3231016789731,683.0476849809858 877.3231016789731,683.0476849809858" style="pointer-events:none;" stroke="gray" stroke-width="0.5" stroke-dasharray="2" fill="none"></polyline>
<polyline points="887.3231016789731,590.1304400067784 887.3231016789731,753.6508826581232" style="pointer-events:none;" stroke="gray" stroke-width="0.5" stroke-dasharray="2" fill="none"></polyline>
<text x="508.0" y="-402.5" text-anchor="middle" style="pointer-events:none;" transform="scale(1,-1) rotate(0,508.0,-406.5)"></text>
<text x="463.6752851507967" y="-107.68919838180429" text-anchor="middle" style="pointer-events:none;" transform="scale(1,-1) rotate(0,463.6752851507967,-111.68919838180429)">central_beam</text>
<text x="463.6752851507967" y="-275.1862969115648" text-anchor="middle" style="pointer-events:none;" transform="scale(1,-1) rotate(0,463.6752851507967,-279.1862969115648)">central_beam</text>
<text x="463.6752851507967" y="-376.8020972074773" text-anchor="middle" style="pointer-events:none;" transform="scale(1,-1) rotate(0,463.6752851507967,-380.8020972074773)">central_beam</text>
<text x="107.49249866895312" y="-532.4018719431496" text-anchor="middle" style="pointer-events:none;" transform="scale(1,-1) rotate(0,107.49249866895312,-536.4018719431496)">side_beam_1</text>
<text x="322.4774960068594" y="-532.4018719431496" text-anchor="middle" style="pointer-events:none;" transform="scale(1,-1) rotate(0,322.4774960068594,-536.4018719431496)">side_beam_2</text>
<text x="109.79187458771607" y="-698.0016466788219" text-anchor="middle" style="pointer-events:none;" transform="scale(1,-1) rotate(0,109.79187458771607,-702.0016466788219)">side_beam_1</text>
<text x="329.37562376314816" y="-698.0016466788219" text-anchor="middle" style="pointer-events:none;" transform="scale(1,-1) rotate(0,329.37562376314816,-702.0016466788219)">side_beam_2</text>
<text x="539.7618692635285" y="-468.4178975033897" text-anchor="middle" style="pointer-events:none;" transform="scale(1,-1) rotate(0,539.7618692635285,-472.4178975033897)">side_beam_1</text>
<text x="539.7618692635285" y="-560.0336977993022" text-anchor="middle" style="pointer-events:none;" transform="scale(1,-1) rotate(0,539.7618692635285,-564.0336977993022)">side_beam_2</text>
<text x="957.3505703015934" y="-125.23504650465856" text-anchor="middle" style="pointer-events:none;" transform="scale(1,-1) rotate(-90,957.3505703015934,-129.23504650465856)">support_1</text>
<text x="957.3505703015934" y="-383.70513951397567" text-anchor="middle" style="pointer-events:none;" transform="scale(1,-1) rotate(-90,957.3505703015934,-387.70513951397567)">support_2</text>
<text x="480.25746552289695" y="-695.3463606393714" text-anchor="middle" style="pointer-events:none;" transform="scale(1,-1) rotate(0,480.25746552289695,-691.3463606393714)">d:d2_1</text>
<text x="480.25746552289695" y="-679.3463606393714" text-anchor="middle" style="pointer-events:none;" transform="scale(1,-1) rotate(0,480.25746552289695,-691.3463606393714)">d:d2_2</text>
<text x="562.4373998669624" y="-695.3463606393714" text-anchor="middle" style="pointer-events:none;" transform="scale(1,-1) rotate(0,562.4373998669624,-691.3463606393714)">d:d3_1</text>
<text x="562.4373998669624" y="-679.3463606393714" text-anchor="middle" style="pointer-events:none;" transform="scale(1,-1) rotate(0,562.4373998669624,-691.3463606393714)">d:d3_2</text>
<text x="1001.6745582362822" y="-197.29109374851194" text-anchor="middle" style="pointer-events:none;" transform="scale(1,-1) rotate(-90,1001.6745582362822,-201.29109374851194)">mid_strengthen</text>
<text x="1001.6745582362822" y="-599.8732812455358" text-anchor="middle" style="pointer-events:none;" transform="scale(1,-1) rotate(-90,1001.6745582362822,-603.8732812455358)">mid_strengthen</text>
<text x="463.6752851507967" y="-773.8511233314842" text-anchor="middle" style="pointer-events:none;" transform="scale(1,-1) rotate(0,463.6752851507967,-777.8511233314842)">central_beam</text>
<text x="463.6752851507967" y="-783.8511233314842" text-anchor="middle" style="pointer-events:none;" transform="scale(1,-1) rotate(0,463.6752851507967,-787.8511233314842)">central_beam</text>
<text x="644.6173342110279" y="-660.3075224342758" text-anchor="middle" style="pointer-events:none;" transform="scale(1,-1) rotate(-90,644.6173342110279,-656.3075224342758)">de:support_1_2</text>
<text x="644.6173342110279" y="-644.3075224342758" text-anchor="middle" style="pointer-events:none;" transform="scale(1,-1) rotate(-90,644.6173342110279,-656.3075224342758)">d:d1_1</text>
<text x="696.019668338262" y="-554.030153190667" text-anchor="middle" style="pointer-events:none;" transform="scale(1,-1) rotate(0,696.019668338262,-558.030153190667)">d:d4</text>
<text x="696.019668338262" y="-471.69996452746625" text-anchor="middle" style="pointer-events:none;" transform="scale(1,-1) rotate(0,696.019668338262,-467.69996452746625)">d:d1_2</text>
<text x="696.019668338262" y="-455.69996452746625" text-anchor="middle" style="pointer-events:none;" transform="scale(1,-1) rotate(0,696.019668338262,-467.69996452746625)">de:support_2_2</text>
<text x="726.2972685550934" y="-648.928020510656" text-anchor="middle" style="pointer-events:none;" transform="scale(1,-1) rotate(-90,726.2972685550934,-644.928020510656)">de:support_1_1</text>
<text x="726.2972685550934" y="-632.928020510656" text-anchor="middle" style="pointer-events:none;" transform="scale(1,-1) rotate(-90,726.2972685550934,-644.928020510656)">de:support_1</text>
<text x="731.5152015310169" y="-735.3258878306449" text-anchor="middle" style="pointer-events:none;" transform="scale(1,-1) rotate(0,731.5152015310169,-731.3258878306449)">de:support_2</text>
<text x="731.5152015310169" y="-719.3258878306449" text-anchor="middle" style="pointer-events:none;" transform="scale(1,-1) rotate(0,731.5152015310169,-731.3258878306449)">de:support_2_1</text>
<text x="937.3505703015934" y="-660.9678013980822" text-anchor="middle" style="pointer-events:none;" transform="scale(1,-1) rotate(-90,937.3505703015934,-664.9678013980822)">de:support_1=</text>
<text x="957.3505703015934" y="-660.9678013980822" text-anchor="middle" style="pointer-events:none;" transform="scale(1,-1) rotate(-90,957.3505703015934,-664.9678013980822)">d:d1_1=</text>
<text x="977.3505703015934" y="-660.9678013980822" text-anchor="middle" style="pointer-events:none;" transform="scale(1,-1) rotate(-90,977.3505703015934,-664.9678013980822)">d:d2_1=</text>
<text x="148.02761537944798" y="-798.8511233314842" text-anchor="middle" style="pointer-events:none;" transform="scale(1,-1) rotate(0,148.02761537944798,-802.8511233314842)">d:d3_1=</text>
<text x="444.08284613834394" y="-798.8511233314842" text-anchor="middle" style="pointer-events:none;" transform="scale(1,-1) rotate(0,444.08284613834394,-802.8511233314842)">d:d4=</text>
<text x="740.1380768972399" y="-798.8511233314842" text-anchor="middle" style="pointer-events:none;" transform="scale(1,-1) rotate(0,740.1380768972399,-802.8511233314842)">d:d3_2=</text>
<text x="787.3231016789731" y="-570.6376127348815" text-anchor="middle" style="pointer-events:none;" transform="scale(1,-1) rotate(-90,787.3231016789731,-574.6376127348815)">d:d2_2=</text>
<text x="807.3231016789731" y="-570.6376127348815" text-anchor="middle" style="pointer-events:none;" transform="scale(1,-1) rotate(-90,807.3231016789731,-574.6376127348815)">d:d1_2=</text>
<text x="827.3231016789731" y="-570.6376127348815" text-anchor="middle" style="pointer-events:none;" transform="scale(1,-1) rotate(-90,827.3231016789731,-574.6376127348815)">de:support_2=</text>
<text x="752.4855928252794" y="-504.37021868110594" text-anchor="middle" style="pointer-events:none;" transform="scale(1,-1) rotate(-90,752.4855928252794,-508.37021868110594)">de:support_1_1=</text>
<text x="847.3231016789731" y="-504.37021868110594" text-anchor="middle" style="pointer-events:none;" transform="scale(1,-1) rotate(-90,847.3231016789731,-508.37021868110594)">de:support_1_2=</text>
<text x="847.3231016789731" y="-667.8906613324508" text-anchor="middle" style="pointer-events:none;" transform="scale(1,-1) rotate(-90,847.3231016789731,-671.8906613324508)">de:support_2_2=</text>
<text x="867.3231016789731" y="-504.37021868110594" text-anchor="middle" style="pointer-events:none;" transform="scale(1,-1) rotate(-90,867.3231016789731,-508.37021868110594)">de:support_2_1=</text>
<text x="867.3231016789731" y="-667.8906613324508" text-anchor="middle" style="pointer-events:none;" transform="scale(1,-1) rotate(-90,867.3231016789731,-671.8906613324508)">de:support_1_1=</text>
<text x="887.3231016789731" y="-504.37021868110594" text-anchor="middle" style="pointer-events:none;" transform="scale(1,-1) rotate(-90,887.3231016789731,-508.37021868110594)">de:support_1_2=</text>
<text x="907.3231016789731" y="-504.37021868110594" text-anchor="middle" style="pointer-events:none;" transform="scale(1,-1) rotate(-90,907.3231016789731,-508.37021868110594)">de:support_2_2=</text>
<text x="887.3231016789731" y="-667.8906613324508" text-anchor="middle" style="pointer-events:none;" transform="scale(1,-1) rotate(-90,887.3231016789731,-671.8906613324508)">de:support_2_1=</text>
<text x="922.3231016789731" y="-532.4018719431496" text-anchor="middle" style="pointer-events:none;" transform="scale(1,-1) rotate(-90,922.3231016789731,-536.4018719431496)">side_beam_1</text>
<text x="771.8872357271262" y="-532.4018719431496" text-anchor="middle" style="pointer-events:none;" transform="scale(1,-1) rotate(-90,771.8872357271262,-536.4018719431496)">side_beam_1</text>
<text x="109.79187458771605" y="-758.809546826778" text-anchor="middle" style="pointer-events:none;" transform="scale(1,-1) rotate(0,109.79187458771605,-762.809546826778)">side_beam_2</text>
<text x="329.37562376314816" y="-758.809546826778" text-anchor="middle" style="pointer-events:none;" transform="scale(1,-1) rotate(0,329.37562376314816,-762.809546826778)">side_beam_2</text>
</g>
</svg>